name GIL11_xslow1Moments.mot
datacolumns 7
datarows 40
range 0.28333336 0.60833335
endheader

                time	          RHipMoment	          LHipMoment	         RKneeMoment	         LKneeMoment	        RAnkleMoment	        LAnkleMoment	
          0.28333336	        -74.11402893	        365.39236450	         -5.93107128	        -62.96088791	        -15.58508110	        258.78491211	
          0.29166672	        -92.95997620	        354.58749390	          0.61752701	        -58.39221954	        -15.78029823	        276.67932129	
          0.30000004	       -119.62063599	        340.98455811	          7.87082720	        -56.74029541	        -16.30341148	        294.70111084	
          0.30833337	       -130.40615845	        337.71585083	         13.91318226	        -58.56539536	        -16.99403763	        312.90341187	
          0.31666669	       -131.26083374	        331.09042358	         17.88197708	        -63.13949203	        -17.61633682	        329.24652100	
          0.32500005	       -118.70298767	        336.55709839	         21.29354668	        -70.23663330	        -17.98329926	        344.71875000	
          0.33333337	       -113.47557831	        333.10281372	         25.70797348	        -79.35592651	        -18.00815392	        359.23007202	
          0.34166670	       -100.64167786	        325.81872559	         28.90777588	        -91.86076355	        -17.69730759	        374.67642212	
          0.35000002	        -84.87673187	        314.97229004	         28.76890755	       -105.54239655	        -17.15655327	        389.93493652	
          0.35833338	        -71.86727905	        302.70364380	         25.56185150	       -119.56758118	        -16.54125214	        406.29852295	
          0.36666670	        -70.30612946	        285.98132324	         20.65266609	       -131.71499634	        -15.91301823	        421.34112549	
          0.37500003	        -68.80178833	        266.42269897	         14.17261505	       -143.27613831	        -15.18113518	        436.32608032	
          0.38333338	        -62.17494583	        251.51564026	          6.30866146	       -154.91410828	        -14.23328972	        450.33837891	
          0.39166671	        -53.93950272	        250.25851440	         -1.12858653	       -170.85180664	        -13.01144314	        467.62167358	
          0.40000004	        -56.72468185	        255.05502319	         -5.73259640	       -187.81153870	        -11.53419876	        486.24044800	
          0.40833336	        -64.83245087	        256.99340820	         -8.03033447	       -204.23060608	         -9.88782120	        505.89205933	
          0.41666669	        -67.98262024	        259.80728149	         -9.22313118	       -218.93240356	         -8.27810764	        523.43731689	
          0.42500004	        -66.44791412	        267.95370483	         -9.72238922	       -235.93070984	         -6.98564482	        542.08184814	
          0.43333337	        -64.30389404	        275.71371460	         -9.20043182	       -252.87269592	         -6.14916277	        560.02618408	
          0.44166672	        -64.30934143	        272.06649780	         -8.14457130	       -268.68139648	         -5.70111132	        578.33935547	
          0.45000005	        -56.40350342	        257.76177979	         -7.09331369	       -279.92410278	         -5.48845196	        594.97387695	
          0.45833337	        -49.86594009	        247.72503662	         -5.65338898	       -290.94949341	         -5.39092636	        611.83282471	
          0.46666670	        -51.97621536	        241.68420410	         -2.56998777	       -297.24655151	         -5.38457203	        626.38916016	
          0.47500002	        -55.83625793	        244.70002747	          1.35931516	       -302.38961792	         -5.55386114	        641.82830811	
          0.48333335	        -61.28314209	        254.18144226	          3.88915372	       -306.67828369	         -6.03008795	        657.39422607	
          0.49166670	        -61.04648972	        270.37850952	          3.94594407	       -310.59191895	         -6.87294006	        674.93096924	
          0.50000000	        -59.97027588	        283.73721313	          1.55254996	       -313.68218994	         -7.98057461	        692.44049072	
          0.50833338	        -50.20808411	        291.99038696	         -3.42604542	       -318.32467651	         -9.12419987	        710.70361328	
          0.51666671	        -40.31715393	        282.20248413	        -11.16853809	       -323.03237915	        -10.07102013	        726.88311768	
          0.52500004	        -23.61888123	        268.89447021	        -20.24313927	       -331.07913208	        -10.67186737	        744.43249512	
          0.53333336	        -23.73079491	        243.62814331	        -28.20397568	       -338.68518066	        -10.90783882	        761.09399414	
          0.54166675	        -13.26907444	        227.67362976	        -34.01154709	       -349.09048462	        -10.93704891	        780.16766357	
          0.55000007	        -13.81741238	        217.84709167	        -38.44497299	       -360.01986694	        -11.01773071	        798.88110352	
          0.55833340	         -6.50334597	        219.58396912	        -41.26370621	       -370.44018555	        -11.30327606	        818.35375977	
          0.56666672	        -18.40124512	        224.89244080	        -41.88396072	       -379.04998779	        -11.76107693	        837.19519043	
          0.57500005	        -19.52519798	        232.49827576	        -40.49202728	       -386.40817261	        -12.24283218	        855.71087646	
          0.58333337	        -30.01244545	        233.34303284	        -38.93177032	       -391.13021851	        -12.58985710	        872.37213135	
          0.59166670	        -27.78686905	        229.11225891	        -39.20439529	       -396.49511719	        -12.71822357	        889.60382080	
          0.60000002	        -34.91139984	        222.42613220	        -42.18932343	       -402.32699585	        -12.63096619	        907.58978271	
          0.60833335	        -23.95122719	        214.08419800	        -47.98616409	       -409.88635254	        -12.40458870	        927.42883301	
